<?xml version="1.0" encoding="UTF-8"?>
<svg width="289px" height="47px" viewBox="0 0 289 47" version="1.1" xmlns="http://www.w3.org/2000/svg" xmlns:xlink="http://www.w3.org/1999/xlink" xmlns:sketch="http://www.bohemiancoding.com/sketch/ns">
    <!-- Generator: Sketch 3.4.2 (15855) - http://www.bohemiancoding.com/sketch -->
    <title>Untitled 5</title>
    <desc>Created with Sketch.</desc>
    <defs>
        <linearGradient x1="3.08514699%" y1="50.0000179%" x2="100.00003%" y2="50.0000179%" id="linearGradient-1">
            <stop stop-color="#000000" offset="0%"></stop>
            <stop stop-color="#FF9E00" offset="100%"></stop>
        </linearGradient>
    </defs>
    <g id="Page-1" stroke="none" stroke-width="1" fill="none" fill-rule="evenodd" sketch:type="MSPage">
        <text id="EarthyTonez" stroke="#000000" fill="#000000" sketch:type="MSTextLayer" font-family="KoHo" font-size="36" font-weight="bold" letter-spacing="1.29999995">
            <tspan x="43" y="38" fill="#FFFFFF">EarthyTonez</tspan>
        </text>
        <g id="logo-light" sketch:type="MSLayerGroup" transform="translate(1.000000, 5.000000)">
            <path d="M6.15076,6.15076 C-2.05025,14.3518 -2.05026,27.6482 6.15075,35.8492 C14.3518,44.0503 27.6482,44.0502 35.8492,35.8492 C44.0502,27.6482 44.0503,14.3518 35.8492,6.15075 C27.6482,-2.05026 14.3518,-2.05025 6.15076,6.15076 Z" id="Shape" fill="url(#linearGradient-1)" sketch:type="MSShapeGroup"></path>
            <path d="M17,19.3684 L17,21.5577 C17,21.5577 11.5886,21.5933 11.1475,21.5723 C10.4746,21.541 10.0203,21.0966 10.0008,20.5421 C9.97978,19.916 10.3851,19.4885 11.1046,19.4102 C11.418,19.3758 11.7367,19.3858 12.2299,19.3684 L17,19.3684 L17,19.3684 Z" id="Shape" fill="#FFFFFF" sketch:type="MSShapeGroup"></path>
            <path d="M21.4209,19.3684 L21.4209,21.5577 C21.4209,21.5577 16.2943,21.5933 15.8765,21.5723 C15.2389,21.541 14.8085,21.0966 14.79,20.5421 C14.7702,19.916 15.1541,19.4885 15.8357,19.4102 C16.1326,19.3758 16.4346,19.3858 16.9019,19.3684 L21.4209,19.3684 L21.4209,19.3684 Z" id="Shape" fill="#FFFFFF" sketch:type="MSShapeGroup"></path>
            <path d="M26.9473,19.3684 L26.9473,21.5577 C26.9473,21.5577 21.5359,21.5933 21.0948,21.5723 C20.4218,21.541 19.9675,21.0966 19.948,20.5421 C19.927,19.916 20.3324,19.4885 21.0518,19.4102 C21.3652,19.3758 21.684,19.3858 22.1772,19.3684 L26.9473,19.3684 L26.9473,19.3684 Z" id="Shape" fill="#FFFFFF" sketch:type="MSShapeGroup"></path>
            <path d="M25.105,21.579 L25.105,19.3897 C25.105,19.3897 30.5164,19.3541 30.9574,19.3751 C31.6304,19.4064 32.0847,19.8508 32.1042,20.4053 C32.1252,21.0314 31.7199,21.4588 31.0004,21.5372 C30.687,21.5715 30.3683,21.5616 29.8751,21.579 L25.105,21.579 L25.105,21.579 Z" id="Shape" fill="#FFFFFF" sketch:type="MSShapeGroup"></path>
            <path d="M17,19.3684 L17,21.5577 C17,21.5577 11.5886,21.5933 11.1475,21.5723 C10.4746,21.541 10.0203,21.0966 10.0008,20.5421 C9.97978,19.916 10.3851,19.4885 11.1046,19.4102 C11.418,19.3758 11.7367,19.3858 12.2299,19.3684 L17,19.3684 L17,19.3684 Z" id="Shape" fill="#FFFFFF" sketch:type="MSShapeGroup"></path>
            <path d="M25.105,21.579 L25.105,19.3897 C25.105,19.3897 30.5164,19.3541 30.9574,19.3751 C31.6304,19.4064 32.0847,19.8508 32.1042,20.4053 C32.1252,21.0314 31.7199,21.4588 31.0004,21.5372 C30.687,21.5715 30.3683,21.5616 29.8751,21.579 L25.105,21.579 L25.105,21.579 Z" id="Shape" fill="#FFFFFF" sketch:type="MSShapeGroup"></path>
            <path d="M17,24.3684 L17,26.5577 C17,26.5577 11.5886,26.5933 11.1475,26.5723 C10.4746,26.541 10.0203,26.0966 10.0008,25.5421 C9.97978,24.916 10.3851,24.4885 11.1046,24.4102 C11.418,24.3758 11.7367,24.3858 12.2299,24.3684 L17,24.3684 L17,24.3684 Z" id="Shape" fill="#FFFFFF" sketch:type="MSShapeGroup"></path>
            <path d="M21.4209,24.3684 L21.4209,26.5577 C21.4209,26.5577 16.2943,26.5933 15.8765,26.5723 C15.2389,26.541 14.8085,26.0966 14.79,25.5421 C14.7702,24.916 15.1541,24.4885 15.8357,24.4102 C16.1326,24.3758 16.4346,24.3858 16.9019,24.3684 L21.4209,24.3684 L21.4209,24.3684 Z" id="Shape" fill="#FFFFFF" sketch:type="MSShapeGroup"></path>
            <path d="M26.9473,24.3684 L26.9473,26.5577 C26.9473,26.5577 21.5359,26.5933 21.0948,26.5723 C20.4218,26.541 19.9675,26.0966 19.948,25.5421 C19.927,24.916 20.3324,24.4885 21.0518,24.4102 C21.3652,24.3758 21.684,24.3858 22.1772,24.3684 L26.9473,24.3684 L26.9473,24.3684 Z" id="Shape" fill="#FFFFFF" sketch:type="MSShapeGroup"></path>
            <path d="M25.105,26.579 L25.105,24.3897 C25.105,24.3897 30.5164,24.3541 30.9574,24.3751 C31.6304,24.4064 32.0847,24.8508 32.1042,25.4053 C32.1252,26.0314 31.7199,26.4588 31.0004,26.5372 C30.687,26.5715 30.3683,26.5616 29.8751,26.579 L25.105,26.579 L25.105,26.579 Z" id="Shape" fill="#FFFFFF" sketch:type="MSShapeGroup"></path>
            <path d="M17,24.3684 L17,26.5577 C17,26.5577 11.5886,26.5933 11.1475,26.5723 C10.4746,26.541 10.0203,26.0966 10.0008,25.5421 C9.97978,24.916 10.3851,24.4885 11.1046,24.4102 C11.418,24.3758 11.7367,24.3858 12.2299,24.3684 L17,24.3684 L17,24.3684 Z" id="Shape" fill="#FFFFFF" sketch:type="MSShapeGroup"></path>
            <path d="M25.105,26.579 L25.105,24.3897 C25.105,24.3897 30.5164,24.3541 30.9574,24.3751 C31.6304,24.4064 32.0847,24.8508 32.1042,25.4053 C32.1252,26.0314 31.7199,26.4588 31.0004,26.5372 C30.687,26.5715 30.3683,26.5616 29.8751,26.579 L25.105,26.579 L25.105,26.579 Z" id="Shape" fill="#FFFFFF" sketch:type="MSShapeGroup"></path>
            <path d="M17,14.3684 L17,16.5577 C17,16.5577 11.5886,16.5933 11.1475,16.5723 C10.4746,16.541 10.0203,16.0966 10.0008,15.5421 C9.97978,14.916 10.3851,14.4885 11.1046,14.4102 C11.418,14.3758 11.7367,14.3858 12.2299,14.3684 L17,14.3684 L17,14.3684 Z" id="Shape" fill="#FFFFFF" sketch:type="MSShapeGroup"></path>
            <path d="M21.4209,14.3684 L21.4209,16.5577 C21.4209,16.5577 16.2943,16.5933 15.8765,16.5723 C15.2389,16.541 14.8085,16.0966 14.79,15.5421 C14.7702,14.916 15.1541,14.4885 15.8357,14.4102 C16.1326,14.3758 16.4346,14.3858 16.9019,14.3684 L21.4209,14.3684 L21.4209,14.3684 Z" id="Shape" fill="#FFFFFF" sketch:type="MSShapeGroup"></path>
            <path d="M26.9473,14.3684 L26.9473,16.5577 C26.9473,16.5577 21.5359,16.5933 21.0948,16.5723 C20.4218,16.541 19.9675,16.0966 19.948,15.5421 C19.927,14.916 20.3324,14.4885 21.0518,14.4102 C21.3652,14.3758 21.684,14.3858 22.1772,14.3684 L26.9473,14.3684 L26.9473,14.3684 Z" id="Shape" fill="#FFFFFF" sketch:type="MSShapeGroup"></path>
            <path d="M25.105,16.579 L25.105,14.3897 C25.105,14.3897 30.5164,14.3541 30.9574,14.3751 C31.6304,14.4064 32.0847,14.8508 32.1042,15.4053 C32.1252,16.0314 31.7199,16.4588 31.0004,16.5372 C30.687,16.5715 30.3683,16.5616 29.8751,16.579 L25.105,16.579 L25.105,16.579 Z" id="Shape" fill="#FFFFFF" sketch:type="MSShapeGroup"></path>
            <path d="M17,14.3684 L17,16.5577 C17,16.5577 11.5886,16.5933 11.1475,16.5723 C10.4746,16.541 10.0203,16.0966 10.0008,15.5421 C9.97978,14.916 10.3851,14.4885 11.1046,14.4102 C11.418,14.3758 11.7367,14.3858 12.2299,14.3684 L17,14.3684 L17,14.3684 Z" id="Shape" fill="#FFFFFF" sketch:type="MSShapeGroup"></path>
            <path d="M25.105,16.579 L25.105,14.3897 C25.105,14.3897 30.5164,14.3541 30.9574,14.3751 C31.6304,14.4064 32.0847,14.8508 32.1042,15.4053 C32.1252,16.0314 31.7199,16.4588 31.0004,16.5372 C30.687,16.5715 30.3683,16.5616 29.8751,16.579 L25.105,16.579 L25.105,16.579 Z" id="Shape" fill="#FFFFFF" sketch:type="MSShapeGroup"></path>
            <path d="M17,9.3684 L17,11.5577 C17,11.5577 11.5886,11.5933 11.1475,11.5723 C10.4746,11.541 10.0203,11.0966 10.0008,10.5421 C9.97978,9.916 10.3851,9.4885 11.1046,9.4102 C11.418,9.3758 11.7367,9.3858 12.2299,9.3684 L17,9.3684 L17,9.3684 Z" id="Shape" fill="#FFFFFF" sketch:type="MSShapeGroup"></path>
            <path d="M21.4209,9.3684 L21.4209,11.5577 C21.4209,11.5577 16.2943,11.5933 15.8765,11.5723 C15.2389,11.541 14.8085,11.0966 14.79,10.5421 C14.7702,9.916 15.1541,9.4885 15.8357,9.4102 C16.1326,9.3758 16.4346,9.3858 16.9019,9.3684 L21.4209,9.3684 L21.4209,9.3684 Z" id="Shape" fill="#FFFFFF" sketch:type="MSShapeGroup"></path>
            <path d="M26.9473,9.3684 L26.9473,11.5577 C26.9473,11.5577 21.5359,11.5933 21.0948,11.5723 C20.4218,11.541 19.9675,11.0966 19.948,10.5421 C19.927,9.916 20.3324,9.4885 21.0518,9.4102 C21.3652,9.3758 21.684,9.3858 22.1772,9.3684 L26.9473,9.3684 L26.9473,9.3684 Z" id="Shape" fill="#FFFFFF" sketch:type="MSShapeGroup"></path>
            <path d="M25.105,11.579 L25.105,9.3897 C25.105,9.3897 30.5164,9.3541 30.9574,9.3751 C31.6304,9.4064 32.0847,9.8508 32.1042,10.4053 C32.1252,11.0314 31.7199,11.4588 31.0004,11.5372 C30.687,11.5715 30.3683,11.5616 29.8751,11.579 L25.105,11.579 L25.105,11.579 Z" id="Shape" fill="#FFFFFF" sketch:type="MSShapeGroup"></path>
            <path d="M17,9.3684 L17,11.5577 C17,11.5577 11.5886,11.5933 11.1475,11.5723 C10.4746,11.541 10.0203,11.0966 10.0008,10.5421 C9.97978,9.916 10.3851,9.4885 11.1046,9.4102 C11.418,9.3758 11.7367,9.3858 12.2299,9.3684 L17,9.3684 L17,9.3684 Z" id="Shape" fill="#FFFFFF" sketch:type="MSShapeGroup"></path>
            <path d="M25.105,11.579 L25.105,9.3897 C25.105,9.3897 30.5164,9.3541 30.9574,9.3751 C31.6304,9.4064 32.0847,9.8508 32.1042,10.4053 C32.1252,11.0314 31.7199,11.4588 31.0004,11.5372 C30.687,11.5715 30.3683,11.5616 29.8751,11.579 L25.105,11.579 L25.105,11.579 Z" id="Shape" fill="#FFFFFF" sketch:type="MSShapeGroup"></path>
        </g>
        <path d="M18,34.3684 L18,36.5577 C18,36.5577 12.5886,36.5933 12.1475,36.5723 C11.4746,36.541 11.0203,36.0966 11.0008,35.5421 C10.97978,34.916 11.3851,34.4885 12.1046,34.4102 C12.418,34.3758 12.7367,34.3858 13.2299,34.3684 L18,34.3684 L18,34.3684 Z" id="Shape" fill="#FFFFFF" sketch:type="MSShapeGroup"></path>
        <path d="M22.4209,34.3684 L22.4209,36.5577 C22.4209,36.5577 17.2943,36.5933 16.8765,36.5723 C16.2389,36.541 15.8085,36.0966 15.79,35.5421 C15.7702,34.916 16.1541,34.4885 16.8357,34.4102 C17.1326,34.3758 17.4346,34.3858 17.9019,34.3684 L22.4209,34.3684 L22.4209,34.3684 Z" id="Shape" fill="#FFFFFF" sketch:type="MSShapeGroup"></path>
        <path d="M27.9473,34.3684 L27.9473,36.5577 C27.9473,36.5577 22.5359,36.5933 22.0948,36.5723 C21.4218,36.541 20.9675,36.0966 20.948,35.5421 C20.927,34.916 21.3324,34.4885 22.0518,34.4102 C22.3652,34.3758 22.684,34.3858 23.1772,34.3684 L27.9473,34.3684 L27.9473,34.3684 Z" id="Shape" fill="#FFFFFF" sketch:type="MSShapeGroup"></path>
        <path d="M26.105,36.579 L26.105,34.3897 C26.105,34.3897 31.5164,34.3541 31.9574,34.3751 C32.6304,34.4064 33.0847,34.8508 33.1042,35.4053 C33.1252,36.0314 32.7199,36.4588 32.0004,36.5372 C31.687,36.5715 31.3683,36.5616 30.8751,36.579 L26.105,36.579 L26.105,36.579 Z" id="Shape" fill="#FFFFFF" sketch:type="MSShapeGroup"></path>
        <path d="M18,34.3684 L18,36.5577 C18,36.5577 12.5886,36.5933 12.1475,36.5723 C11.4746,36.541 11.0203,36.0966 11.0008,35.5421 C10.97978,34.916 11.3851,34.4885 12.1046,34.4102 C12.418,34.3758 12.7367,34.3858 13.2299,34.3684 L18,34.3684 L18,34.3684 Z" id="Shape" fill="#FFFFFF" sketch:type="MSShapeGroup"></path>
        <path d="M26.105,36.579 L26.105,34.3897 C26.105,34.3897 31.5164,34.3541 31.9574,34.3751 C32.6304,34.4064 33.0847,34.8508 33.1042,35.4053 C33.1252,36.0314 32.7199,36.4588 32.0004,36.5372 C31.687,36.5715 31.3683,36.5616 30.8751,36.579 L26.105,36.579 L26.105,36.579 Z" id="Shape" fill="#FFFFFF" sketch:type="MSShapeGroup"></path>
    </g>
</svg>